<svg width="239" height="44" viewBox="0 0 239 44" fill="none" xmlns="http://www.w3.org/2000/svg">
<path d="M19.7841 35.7382C20.727 35.7382 21.6219 35.6548 22.464 35.4686C23.3182 35.282 24.0763 34.9892 24.7158 34.5543C25.3553 34.1375 25.8842 33.565 26.2702 32.8356C26.6558 32.114 26.8402 31.1775 26.8402 30.0436C26.8402 27.8247 26.2109 26.2481 24.9595 25.2912C23.7052 24.3477 22.0326 23.8786 19.9755 23.8786H9.58457V35.7382H19.7841ZM19.2566 17.405C20.9492 17.405 22.3505 17.0062 23.4615 16.1962C24.5608 15.4018 25.0948 14.0851 25.0948 12.2797C25.0948 11.2793 24.917 10.4497 24.5608 9.80689C24.1934 9.16402 23.7052 8.66057 23.089 8.30903C22.4775 7.94268 21.7866 7.68887 20.9837 7.55316C20.1977 7.39939 19.3719 7.34057 18.5265 7.34057H9.58457V17.405H19.2566ZM20.4927 0.00461355C22.5681 0.00461355 24.4418 0.182929 26.1549 0.55114C27.8573 0.909161 29.3109 1.50756 30.5391 2.32874C31.749 3.14807 32.6952 4.2388 33.3725 5.61253C34.0335 6.9668 34.3668 8.66103 34.3668 10.666C34.3668 12.8345 33.8701 14.645 32.8777 16.0924C31.8788 17.5379 30.4107 18.7236 28.4492 19.6448C31.1207 20.4067 33.0985 21.7494 34.4107 23.6562C35.7294 25.576 36.374 27.8756 36.374 30.5693C36.374 32.754 35.9521 34.6331 35.1114 36.2148C34.2608 37.8159 33.1041 39.1141 31.6781 40.115C30.2403 41.1256 28.5893 41.8667 26.7398 42.3493C24.8884 42.8343 22.9812 43.0778 21.0664 43.0737H0.027832V0.00415039H20.4927V0.00461355ZM59.9179 19.2108C58.8909 18.084 57.154 17.474 55.0342 17.474C53.6544 17.474 52.5121 17.7047 51.5991 18.1738C50.7056 18.637 49.9723 19.2141 49.4135 19.8926C48.8562 20.5827 48.4753 21.3103 48.255 22.0889C48.0337 22.848 47.9021 23.5363 47.861 24.1449H61.9074C61.7015 21.9597 60.9481 20.3456 59.9179 19.2108ZM49.9984 35.5946C51.291 36.847 53.1601 37.4783 55.5813 37.4783C57.322 37.4783 58.827 37.0415 60.0892 36.1698C61.3402 35.3014 62.102 34.3709 62.397 33.4062H69.9988C68.7772 37.1596 66.9231 39.8399 64.3926 41.4526C61.8943 43.0732 58.8447 43.8809 55.2929 43.8809C52.817 43.8809 50.5889 43.4822 48.5896 42.6999C46.5899 41.907 44.9188 40.7949 43.5128 39.3462C42.1427 37.8905 41.0798 36.1698 40.3217 34.1505C39.5716 32.1404 39.1921 29.9144 39.1921 27.5023C39.1921 25.1703 39.5865 22.9916 40.353 20.9787C41.1372 18.9589 42.2202 17.2156 43.6444 15.7534C45.0737 14.2833 46.7663 13.1236 48.7376 12.2764C50.7108 11.4307 52.8846 11.0074 55.2929 11.0074C57.9517 11.0074 60.2806 11.5146 62.2766 12.5497C64.2661 13.5687 65.8961 14.9503 67.1784 16.6811C68.4593 18.4091 69.371 20.385 69.9409 22.5993C70.5048 24.8118 70.7041 27.123 70.5412 29.5434H47.8605C47.8605 32.0079 48.7007 34.3417 49.9984 35.5946ZM82.8026 0.00461355V16.2439H83.0005C84.0965 14.4371 85.4829 13.1236 87.1872 12.3093C88.8882 11.4881 90.5481 11.0824 92.1647 11.0824C94.4706 11.0824 96.3598 11.3835 97.8348 12.0032C99.3118 12.6345 100.48 13.4885 101.336 14.5987C102.175 15.7043 102.768 17.0535 103.116 18.643C103.457 20.2293 103.633 21.9796 103.633 23.9091V43.0737H94.9584V25.4644C94.9584 22.8971 94.5547 20.9671 93.7504 19.7046C92.9447 18.4401 91.514 17.8056 89.4502 17.8056C87.1163 17.8056 85.4283 18.5073 84.3832 19.8926C83.3189 21.2775 82.8026 23.5576 82.8026 26.7302V43.0737H74.1309V0.00415039H82.8026M126.788 28.5866C126.252 28.763 125.656 28.9121 125.043 29.0414C124.386 29.1624 123.726 29.2628 123.063 29.3424C122.376 29.4217 121.69 29.5204 121.008 29.6384C120.362 29.7639 119.716 29.9209 119.101 30.1256C118.475 30.3285 117.926 30.598 117.474 30.9385C117.008 31.2831 116.623 31.7252 116.348 32.2335C116.071 32.7536 115.923 33.4289 115.923 34.2273C115.923 34.9892 116.071 35.6321 116.348 36.1601C116.634 36.6835 117.006 37.0924 117.495 37.3949C117.983 37.6973 118.555 37.9099 119.192 38.028C119.838 38.1554 120.505 38.2031 121.19 38.2031C122.887 38.2031 124.196 37.9233 125.128 37.3625C126.056 36.7979 126.756 36.1244 127.192 35.3394C127.637 34.5543 127.906 33.7628 127.993 32.9648C128.107 32.1617 128.158 31.5142 128.158 31.0283V27.8247C127.784 28.1535 127.344 28.4068 126.788 28.5866ZM109.797 16.4518C110.66 15.1373 111.821 14.0404 113.185 13.2477C114.563 12.4372 116.103 11.8661 117.833 11.5243C119.544 11.1771 121.286 11.0039 123.032 11.0074C124.606 11.0074 126.198 11.1153 127.839 11.3376C129.452 11.5585 130.927 11.9921 132.266 12.6377C133.603 13.2871 134.692 14.1754 135.536 15.3347C136.391 16.4648 136.825 17.9955 136.825 19.8926V36.1453C136.825 37.5584 136.91 38.9011 137.062 40.1868C137.233 41.4836 137.677 42.4563 138.096 43.0945L129.278 43.0732C129.019 42.7004 128.804 42.1163 128.704 41.6078C128.6 41.1014 128.529 40.5891 128.491 40.0738C127.118 41.4836 125.508 42.4748 123.632 43.0403C121.782 43.5981 119.859 43.8814 117.926 43.8809C116.432 43.8809 115.041 43.6929 113.739 43.3298C112.457 42.9667 111.318 42.4044 110.347 41.6439C109.371 40.8686 108.621 39.9071 108.074 38.7427C107.53 37.5718 107.25 36.1782 107.25 34.5692C107.25 32.7929 107.571 31.3308 108.206 30.1858C108.824 29.0414 109.627 28.1202 110.631 27.4384C111.618 26.7515 112.752 26.2346 114.036 25.8979C115.302 25.5562 116.586 25.2827 117.881 25.0786C119.182 24.8808 120.447 24.7206 121.712 24.596C122.979 24.4732 124.077 24.2986 125.058 24.0532C126.025 23.8142 126.8 23.4511 127.369 22.9916C127.927 22.5308 128.196 21.8601 128.158 20.9671C128.158 20.0445 127.993 19.309 127.695 18.7593C127.413 18.2412 126.998 17.8058 126.493 17.4967C125.985 17.1924 125.41 16.9932 124.749 16.8867C124.039 16.7855 123.323 16.7352 122.605 16.7362C120.916 16.7362 119.579 17.109 118.631 17.8255C117.657 18.5629 117.097 19.7764 116.924 21.4706H108.264C108.389 19.448 108.89 17.7778 109.797 16.4518ZM149.772 11.8971V16.2439H149.965C151.058 14.4371 152.467 13.1236 154.217 12.3093C155.953 11.4881 157.751 11.0824 159.574 11.0824C161.89 11.0824 163.79 11.3835 165.259 12.0032C166.754 12.6345 167.916 13.4885 168.759 14.5987C169.622 15.7043 170.215 17.0535 170.562 18.643C170.911 20.2293 171.085 21.9796 171.085 23.9091V43.0737H162.406V25.4644C162.406 22.8971 161.999 20.9671 161.189 19.7046C160.369 18.4401 158.953 17.6296 156.874 17.6296C154.525 17.6296 152.815 18.5073 151.763 19.8926C150.705 21.2775 150.181 23.5576 150.181 26.7302V43.0737H141.597V11.8971H149.772ZM190.293 17.474C188.906 17.474 187.76 17.7778 186.839 18.4096C185.899 19.0324 185.114 19.8588 184.542 20.8263C183.954 21.8092 183.547 22.8967 183.295 24.0874C183.059 25.2764 182.927 26.4542 182.927 27.625C182.927 28.7565 183.059 29.9033 183.295 31.0742C183.547 32.2386 183.934 33.2899 184.482 34.2482C185.032 35.183 185.794 35.9776 186.708 36.5691C187.636 37.1758 188.765 37.4783 190.105 37.4783C192.184 37.4783 193.776 36.9025 194.892 35.7627C196.003 34.6164 196.69 33.0759 196.98 31.146H205.317C204.745 35.282 203.123 38.4416 200.455 40.6199C197.777 42.7837 194.347 43.8809 190.17 43.8809C187.809 43.8809 185.665 43.4822 183.687 42.6999C181.713 41.907 180.036 40.8148 178.655 39.405C177.273 37.9919 176.202 36.3125 175.417 34.3598C174.651 32.4034 174.265 30.2562 174.265 27.9261C174.265 25.5121 174.623 23.2635 175.333 21.1848C176.041 19.1145 177.086 17.3202 178.478 15.8154C179.858 14.3009 181.546 13.1236 183.542 12.2764C185.53 11.4307 187.801 11.0074 190.351 11.0074C192.217 11.0074 194.009 11.2575 195.739 11.7253C197.457 12.2028 199.001 12.9406 200.356 13.9299C201.711 14.9075 202.843 16.1574 203.679 17.5981C204.521 19.0585 205.003 20.8083 205.136 22.8087H196.671C196.11 19.2498 193.984 17.474 190.293 17.474ZM46.0956 2.89379H63.691V7.14466H46.0956V2.89379ZM228.324 19.2108C227.284 18.084 225.533 17.474 223.44 17.474C222.062 17.474 220.917 17.7047 219.987 18.1738C219.092 18.637 218.274 19.2141 217.726 19.8926C217.177 20.5827 216.783 21.3103 216.554 22.0889C216.349 22.848 216.206 23.5363 216.168 24.1449H230.32C230.089 21.9597 229.354 20.3456 228.324 19.2108H228.324ZM218.297 35.5946C219.595 36.847 221.553 37.4783 223.992 37.4783C225.73 37.4783 227.231 37.0415 228.486 36.1698C229.74 35.3014 230.518 34.3709 230.795 33.4062H238.397C237.182 37.1596 235.316 39.8399 232.802 41.4526C230.294 43.0732 227.258 43.8809 223.692 43.8809C221.21 43.8809 218.973 43.4822 216.989 42.6999C214.992 41.907 213.32 40.7949 211.92 39.3462C210.536 37.8905 209.474 36.1698 208.719 34.1505C207.97 32.1404 207.597 29.9144 207.597 27.5023C207.597 25.1703 207.983 22.9916 208.75 20.9787C209.529 18.9589 210.634 17.2156 212.051 15.7534C213.486 14.2833 215.164 13.1236 217.13 12.2764C219.105 11.4307 221.297 11.0074 223.692 11.0074C226.348 11.0074 228.687 11.5146 230.663 12.5497C232.657 13.5687 234.295 14.9503 235.568 16.6811C236.849 18.4091 237.77 20.385 238.336 22.5993C238.892 24.8118 239.107 27.123 238.947 29.5434H216.168C216.168 32.0079 216.997 34.3417 218.297 35.5946Z" fill="#3A3A3A"/>
</svg>
