<svg width="175" height="44" viewBox="0 0 175 44" fill="none" xmlns="http://www.w3.org/2000/svg">
<path d="M53.4687 17.5727C55.4716 17.5727 57.0951 15.9133 57.0951 13.8666C57.0951 11.8195 55.4716 10.1605 53.4687 10.1605C51.4657 10.1605 49.8422 11.8195 49.8422 13.8666C49.8422 15.9133 51.4657 17.5727 53.4687 17.5727ZM173.152 30.2353C172.601 29.8389 172.175 29.7733 171.821 30.5429C165.73 44.0209 155.466 37.2952 156.486 37.8871C158.763 36.8231 164.751 31.9167 163.845 25.1421C163.296 21.0019 159.818 19.1654 156.126 19.823C149.682 20.9708 147.311 28.0723 148.518 34.3594C148.729 35.4392 149.106 36.3296 149.484 37.202C142.201 43.2523 139.309 31.7858 138.981 30.4155C138.968 30.3421 144.604 25.5427 146.171 14.1058C147.814 2.11929 144.072 -0.0632495 140.245 0.00484569C133.163 0.130909 131.249 15.2484 133.82 27.8478C133.605 27.905 132.602 28.4721 130.992 28.5357C129.834 24.8107 124.883 21.5456 123.587 22.8038C120.344 25.9512 124.373 32.1046 127.209 32.5872C125.505 43.3047 114.854 40.6504 116.837 27.223C120.305 20.6422 122.943 10.8571 122.473 4.94996C122.306 2.85856 120.792 0.0565282 117.37 0.195512C110.786 0.461608 110.071 15.5833 110.842 26.3158C110.804 26.0514 110.438 27.6197 107.74 28.3995C107.102 24.7807 101.398 21.1482 100.056 22.8946C97.5427 26.1632 101.898 31.9911 103.961 32.3976C102.258 43.1147 91.607 40.4604 93.5898 27.0331C97.0583 20.4526 99.696 10.6675 99.2253 4.76034C99.0585 2.66859 97.5454 -0.13344 94.1223 0.0051949C87.539 0.271639 86.8232 15.3933 87.595 26.1258C87.5564 25.8573 87.1814 27.4773 84.3736 28.2441C84.2796 23.549 78.5555 21.3962 77.1805 22.8943C74.7298 25.5647 77.7417 31.0437 80.528 32.3976C78.8249 43.1147 68.1738 40.4604 70.1565 27.0331C73.6251 20.4526 76.2631 10.6675 75.7921 4.76034C75.6256 2.66859 74.1122 -0.13344 70.6891 0.0051949C64.1061 0.271639 63.5763 16.1535 64.3481 26.8857C62.1797 36.3775 54.908 48.2309 55.8527 24.486C55.946 22.8202 56.0479 22.1878 55.2351 21.5641C54.626 21.0794 53.241 21.3127 52.4839 21.3319C51.5638 21.3696 51.3331 21.9196 51.1297 22.7511C50.656 24.898 50.5709 26.9793 50.5032 29.819C50.4588 31.1474 50.3545 31.7673 49.8538 33.5786C49.3538 35.3896 46.5008 38.6997 44.9388 38.1462C42.7718 37.3849 43.4827 31.1348 43.8888 26.8407C44.2271 23.4471 43.1437 21.9231 40.3676 21.3689C38.7423 21.0229 37.7549 21.076 36.0623 20.5308C34.4617 20.0154 34.0997 16.9221 30.6858 17.953C28.8186 18.5173 30.019 22.5594 29.5702 25.5552C27.3639 40.2921 22.7732 40.6968 20.6435 33.5381C30.2354 9.53678 23.4182 0.074687 19.4277 0.074687C15.2715 0.074687 10.5205 2.99964 12.5323 21.7143C11.5541 21.4227 11.2533 21.2656 10.1825 21.2656C4.12617 21.2656 0 26.2676 0 32.4381C0 38.6086 4.12651 43.6109 10.1828 43.6109C13.758 43.6109 16.2682 41.9498 18.1692 39.38C19.4096 41.1948 20.92 43.6389 23.6821 43.5289C31.9149 43.2013 34.3092 25.9474 34.5919 24.985C35.472 25.1236 36.3046 25.3859 37.1174 25.5245C38.4716 25.7323 38.5701 26.2798 38.5393 27.6714C38.1804 39.4061 40.2999 43.5149 45.1076 43.5149C47.7863 43.5149 50.1737 40.826 51.8185 38.9033C53.0469 41.4937 55.0043 43.4356 57.6304 43.5146C63.9936 43.6762 66.4299 33.3142 66.2078 34.6779C66.0334 35.7479 68.2722 43.4562 74.8231 43.4842C82.9377 43.5191 84.446 34.402 84.6258 32.8749C84.6484 32.5711 84.6583 32.6026 84.6258 32.8749L84.6197 32.9675C87.1958 32.4779 88.525 31.0667 88.525 31.0667C88.525 31.0667 90.5936 43.626 98.256 43.4845C106.213 43.3372 107.714 35.0959 107.91 33.4888C107.936 33.1075 107.952 33.1522 107.91 33.4888C107.909 33.5046 107.908 33.5203 107.907 33.536C110.967 32.3986 111.772 31.2571 111.772 31.2571C111.772 31.2571 113.416 43.5666 121.503 43.6741C128.71 43.7705 131.381 36.2308 131.396 33.075C132.612 33.0883 134.86 32.3382 134.807 32.2956C134.807 32.2956 137.447 43.0581 144.819 43.6109C148.28 43.8704 150.876 41.6212 152.356 40.5952C155.834 43.473 167.416 47.1488 174.729 34.4813C175.761 32.6633 173.542 30.5157 173.152 30.2353ZM9.89058 39.4323C6.35708 39.4323 4.09131 36.0943 4.09131 32.495C4.09131 28.8961 6.17114 25.558 9.70464 25.558C11.2947 25.558 12.1792 25.7368 13.4176 26.8372C13.6421 27.7413 14.2786 29.8267 14.5882 30.7738C15.0032 32.041 15.4967 33.1197 15.9944 34.2938C15.2834 37.305 12.9527 39.4323 9.89058 39.4323ZM18.5011 26.943C18.3542 26.7038 18.3849 26.8508 18.2205 26.6248C17.5728 24.8247 16.3246 20.8067 16.18 16.2429C16.0166 11.0803 16.8588 5.02888 19.3416 5.02888C21.0239 5.02888 22.8119 17.293 18.5008 26.943H18.5011ZM68.2534 21.5638C67.8549 18.5002 67.834 4.84275 71.0432 5.21885C72.815 5.95218 69.9197 18.8396 68.2534 21.5638ZM91.6867 21.5638C91.2881 18.5002 91.2673 4.84275 94.4764 5.21885C96.2483 5.95218 93.3529 18.8396 91.6867 21.5638ZM114.934 21.7541C114.535 18.6902 114.515 5.03272 117.723 5.40881C119.495 6.14215 116.6 19.03 114.934 21.7541ZM140.599 4.41951C143.533 4.10872 143.412 17.1991 137.523 25.4634C136.763 22.4763 135.599 5.44513 140.599 4.41916V4.41951ZM152.931 32.5872C151.989 27.7238 154.423 24.5296 156.934 24.1794C157.811 24.0362 159.083 24.6169 159.336 25.7026C159.753 27.7486 159.276 30.7835 153.658 34.6342C153.666 34.6671 153.141 33.6704 152.931 32.5872H152.931Z" fill="#3A3A3A"/>
</svg>
