<svg width="135" height="44" viewBox="0 0 135 44" fill="none" xmlns="http://www.w3.org/2000/svg">
<g clip-path="url(#clip0_1_1023)">
<path d="M130.795 26.8904L134.54 29.3704C133.325 31.1487 130.417 34.1999 125.391 34.1999C119.149 34.1999 114.501 29.4031 114.501 23.301C114.501 16.8076 119.199 12.4023 124.865 12.4023C130.565 12.4023 133.357 16.9053 134.261 19.3363L134.754 20.5764L120.069 26.613C121.186 28.7994 122.927 29.9088 125.391 29.9088C127.855 29.9088 129.563 28.7015 130.795 26.8904ZM119.281 22.9587L129.087 18.9122C128.545 17.5582 126.935 16.5957 125.013 16.5957C122.566 16.5957 119.166 18.7493 119.281 22.9587Z" fill="#FF302F"/>
<path d="M107.422 1.29152H112.152V33.2046H107.422V1.29126V1.29152Z" fill="#20B15A"/>
<path d="M99.9645 13.2505H104.531V32.6333C104.531 40.6767 99.7509 43.9887 94.1005 43.9887C88.7788 43.9887 85.5759 40.4321 84.3768 37.5443L88.5652 35.8147C89.3206 37.593 91.1439 39.6979 94.1005 39.6979C97.7304 39.6979 99.9645 37.4626 99.9645 33.286V31.7198H99.8003C98.716 33.0249 96.6465 34.1995 94.0185 34.1995C88.5322 34.1995 83.5059 29.4517 83.5059 23.3336C83.5059 17.1825 88.5322 12.386 94.0185 12.386C96.6301 12.386 98.716 13.5444 99.8003 14.817H99.9645V13.2508V13.2505ZM100.293 23.3336C100.293 19.4831 97.7141 16.6768 94.429 16.6768C91.1109 16.6768 88.3187 19.4831 88.3187 23.3336C88.3187 27.1349 91.1109 29.8922 94.429 29.8922C97.7143 29.9087 100.293 27.1349 100.293 23.3336H100.293Z" fill="#3686F7"/>
<path d="M57.5376 23.2518C57.5376 29.5333 52.6101 34.1504 46.5654 34.1504C40.521 34.1504 35.5933 29.5171 35.5933 23.2518C35.5933 16.9378 40.521 12.3369 46.5654 12.3369C52.6101 12.3369 57.5376 16.9378 57.5376 23.2518ZM52.7414 23.2518C52.7414 19.3363 49.8832 16.6439 46.5654 16.6439C43.2477 16.6439 40.3894 19.3363 40.3894 23.2518C40.3894 27.1348 43.2477 29.8597 46.5654 29.8597C49.8835 29.8597 52.7414 27.1348 52.7414 23.2518Z" fill="#FF302F"/>
<path d="M81.5025 23.301C81.5025 29.5825 76.5747 34.1996 70.5303 34.1996C64.4856 34.1996 59.5581 29.5822 59.5581 23.301C59.5581 16.987 64.4856 12.4023 70.5303 12.4023C76.5747 12.4023 81.5025 16.9707 81.5025 23.301ZM76.6897 23.301C76.6897 19.3855 73.8317 16.6931 70.5137 16.6931C67.1959 16.6931 64.3377 19.3855 64.3377 23.301C64.3377 27.184 67.1959 29.9088 70.5137 29.9088C73.8481 29.9088 76.6897 27.1677 76.6897 23.301Z" fill="#FFBA40"/>
<path d="M17.558 29.4193C10.6757 29.4193 5.28832 23.9046 5.28832 17.0684C5.28832 10.2324 10.6757 4.71775 17.558 4.71775C21.2703 4.71775 23.9803 6.16975 25.9842 8.02979L29.2859 4.75048C26.4936 2.0911 22.765 0.067627 17.558 0.067627C8.12991 0.0678889 0.196289 7.70372 0.196289 17.0684C0.196289 26.4336 8.12991 34.0692 17.558 34.0692C22.6501 34.0692 26.4936 32.405 29.4995 29.3051C32.5873 26.2377 33.54 21.9304 33.54 18.4389C33.54 17.3457 33.4087 16.2201 33.2607 15.388H17.558V19.9237H28.7438C28.4152 22.7627 27.5119 24.7042 26.1814 26.0255C24.5717 27.641 22.0259 29.4193 17.558 29.4193Z" fill="#3686F7"/>
</g>
<defs>
<clipPath id="clip0_1_1023">
<rect width="135" height="44" fill="white"/>
</clipPath>
</defs>
</svg>
