<svg width="175" height="44" viewBox="0 0 175 44" fill="none" xmlns="http://www.w3.org/2000/svg">
<path d="M69.0625 25.7713L78.7189 37.7142H71.0938L62.5 26.7458V37.7142H56.2499V6.28581H62.5V24.7658L70.4375 15.7142H78.4062L69.0625 25.7713ZM44.0624 15.0858C42.694 15.1064 41.3509 15.4603 40.1481 16.1171C38.9454 16.7739 37.9188 17.714 37.1564 18.8571V15.7142H31.2501V37.7142H37.4999V27.4371C37.4178 26.6911 37.4893 25.9362 37.7099 25.2192C37.9304 24.5023 38.2954 23.8386 38.782 23.2696C39.2686 22.7006 39.8664 22.2384 40.5383 21.9119C41.2102 21.5853 41.9417 21.4013 42.6874 21.3713C46.3125 21.3713 46.875 24.9542 46.875 27.4371V37.7142H53.1251V26.0542C53.1251 19.14 50.8437 15.0858 44.1875 15.0858H44.0624ZM99.9999 27.2171C100.024 27.6777 100.024 28.1394 99.9999 28.6H83.5936V28.82C83.8599 30.1306 84.5819 31.3029 85.63 32.1265C86.6781 32.9501 87.9837 33.3712 89.3126 33.3142C90.3667 33.3603 91.4193 33.192 92.4073 32.8195C93.3953 32.4469 94.2985 31.8776 95.0626 31.1458L99.2188 34.2887C97.9015 35.6407 96.3171 36.6999 94.5678 37.3982C92.8184 38.0965 90.943 38.4183 89.0624 38.3429C87.5049 38.4419 85.9445 38.2036 84.4865 37.6441C83.0285 37.0846 81.7069 36.217 80.6108 35.0998C79.5148 33.9825 78.6699 32.6418 78.1333 31.1681C77.5966 29.6943 77.3807 28.122 77.5 26.5571C77.468 25.0123 77.7528 23.4774 78.3364 22.0482C78.9201 20.6189 79.7903 19.3259 80.8926 18.2496C81.995 17.1734 83.306 16.3371 84.7438 15.7927C86.1817 15.2484 87.7156 15.0078 89.25 15.0858C95.1251 15.0858 99.9999 19.2658 99.9999 27.2171ZM94.1876 24.5142C94.1646 23.8917 94.0158 23.2804 93.7503 22.7175C93.4848 22.1547 93.1082 21.6522 92.6433 21.2405C92.1784 20.8288 91.635 20.5166 91.0463 20.323C90.4576 20.1294 89.8358 20.0583 89.2189 20.1142C86.4708 19.8155 83.9822 21.7621 83.5936 24.5142H94.1876ZM6.2501 6.28581H0V37.7142H18.75V31.4291H6.2501V6.28581ZM118.75 6.28581H125V37.7142H119.094V35.5142C118.344 36.4435 117.388 37.1833 116.303 37.6745C115.217 38.1657 114.033 38.3946 112.844 38.3429C111.391 38.3054 109.962 37.9695 108.643 37.3559C107.324 36.7423 106.144 35.8639 105.175 34.7748C104.207 33.6856 103.469 32.4087 103.009 31.0226C102.549 29.6364 102.376 28.1702 102.5 26.7142C102.353 25.2561 102.508 23.7831 102.958 22.3889C103.407 20.9947 104.14 19.7098 105.11 18.6161C106.08 17.5223 107.266 16.6435 108.592 16.0358C109.918 15.428 111.355 15.1045 112.812 15.0858C113.898 15.038 114.982 15.2079 116.001 15.5856C117.021 15.9633 117.955 16.5413 118.75 17.2858V6.28581ZM119.219 26.7142C119.317 25.9885 119.259 25.25 119.05 24.5485C118.84 23.8471 118.484 23.199 118.004 22.648C117.524 22.0969 116.932 21.6558 116.269 21.3543C115.605 21.0527 114.885 20.8978 114.156 20.9C111.167 21.1183 108.901 23.704 109.063 26.7142C108.901 29.7244 111.167 32.3104 114.156 32.5287C114.885 32.5309 115.605 32.376 116.269 32.0744C116.932 31.7729 117.524 31.3317 118.004 30.7806C118.484 30.2296 118.84 29.5814 119.05 28.88C119.26 28.1785 119.317 27.4399 119.219 26.7142ZM25 5.65709C23.995 5.67142 23.0328 6.06875 22.3077 6.76886C21.5827 7.46897 21.1488 8.4197 21.0937 9.42906C21.0937 11.5985 22.8426 13.3574 25 13.3574C27.1575 13.3574 28.9058 11.5981 28.9058 9.42906C28.8506 8.41982 28.4167 7.46922 27.6917 6.7692C26.9667 6.06917 26.0046 5.67184 24.9997 5.65744L25 5.65709ZM21.875 37.7142H28.1251V15.7142H21.875V37.7142ZM175 3.14291V40.8571C175 41.6906 174.671 42.4901 174.085 43.0795C173.499 43.6689 172.704 44 171.875 44H134.375C133.546 44 132.751 43.6689 132.165 43.0795C131.579 42.4901 131.25 41.6906 131.25 40.8571V3.14291C131.25 2.30936 131.579 1.50995 132.165 0.920536C132.751 0.331127 133.546 0 134.375 0L171.875 0C172.704 0 173.499 0.331127 174.085 0.920536C174.671 1.50995 175 2.30936 175 3.14291ZM143.75 15.7142H137.5V37.7142H143.75V15.7142ZM144.531 9.42872C144.531 7.25897 142.782 5.5 140.625 5.5C138.468 5.5 136.719 7.25897 136.719 9.42872C136.719 11.5981 138.468 13.3571 140.625 13.3571C142.782 13.3571 144.531 11.5981 144.531 9.42872ZM168.75 26.0542C168.75 19.14 166.469 15.0858 159.813 15.0858C158.423 15.0859 157.055 15.43 155.828 16.0877C154.602 16.7454 153.556 17.6965 152.781 18.8571V15.7142H146.875V37.7142H153.125V27.4371C153.043 26.6911 153.114 25.9362 153.335 25.2192C153.556 24.5023 153.92 23.8386 154.407 23.2696C154.894 22.7006 155.492 22.2384 156.163 21.9119C156.835 21.5853 157.567 21.4013 158.312 21.3713C161.938 21.3713 162.5 24.9542 162.5 27.4371V37.7142H168.75V26.0542Z" fill="#0A66C2"/>
</svg>
