<svg width="128" height="44" viewBox="0 0 128 44" fill="none" xmlns="http://www.w3.org/2000/svg">
<g clip-path="url(#clip0_1_1036)">
<path d="M115.391 17.9015C116.929 17.9015 118.175 16.6575 118.175 15.123C118.175 13.5885 116.929 12.3445 115.391 12.3445C113.854 12.3445 112.607 13.5885 112.607 15.123C112.607 16.6575 113.854 17.9015 115.391 17.9015Z" fill="#FF4500"/>
<path d="M91.9661 10.5886C92.803 10.5886 93.4928 11.2481 93.5391 12.0724L93.5416 12.1614V32.3689C93.5416 33.2339 92.8328 33.9414 91.9661 33.9414C91.2048 33.9414 90.5481 33.3914 90.4168 32.6569C89.3404 33.7319 87.9745 34.2824 86.3724 34.2824C82.2233 34.2824 78.862 30.5341 78.862 25.9214C78.862 21.3084 82.2235 17.5601 86.3724 17.5601C87.9129 17.5601 89.2104 18.0451 90.2655 19.0376L90.3907 19.1594V12.1611C90.3907 11.2961 91.0996 10.5886 91.9663 10.5886H91.9661ZM108.406 10.5886C109.243 10.5886 109.932 11.2481 109.979 12.0724L109.981 12.1614V32.3689C109.981 33.2339 109.272 33.9414 108.406 33.9414C107.644 33.9414 106.987 33.3914 106.856 32.6569C105.779 33.7319 104.414 34.2824 102.812 34.2824C98.6629 34.2824 95.3016 30.5341 95.3016 25.9214C95.3016 21.3084 98.6632 17.5601 102.812 17.5601C104.353 17.5601 105.65 18.0451 106.705 19.0376L106.83 19.1594V12.1611C106.83 11.2959 107.539 10.5884 108.405 10.5884L108.406 10.5886ZM70.3271 17.5336C73.8201 17.5336 76.7611 20.2076 77.6013 23.8244L77.6298 23.9756C77.6724 24.2164 77.7115 24.5226 77.7325 24.9514C77.7836 25.9184 77.0429 26.9096 75.7507 26.9671L75.6317 26.9696V26.9171H66.0467C66.4407 29.3021 68.2265 31.1106 70.3271 31.1106C72.1131 31.1106 73.216 30.1149 73.7938 29.6166C74.3975 29.1189 75.2116 28.9616 75.8681 29.4071C76.6562 29.9576 76.7874 31.0846 76.1311 31.8186C74.7918 33.3126 72.9274 34.2561 70.3271 34.2561C66.178 34.2561 62.8164 30.5079 62.8164 25.8949C62.8164 21.2819 66.178 17.5339 70.3271 17.5339V17.5336ZM123.388 14.0716L123.479 14.0744C124.29 14.1249 124.905 14.8089 124.947 15.6099L124.95 15.6994V17.9011H126.394C127.183 17.9011 127.839 18.5824 127.786 19.3946C127.736 20.1256 127.127 20.6629 126.427 20.7031L126.342 20.7056H124.95V32.3951C124.95 33.2599 124.268 33.9414 123.348 33.9936C122.512 33.9936 121.822 33.3341 121.775 32.5104L121.773 32.4214V20.7319H120.433C119.646 20.7319 118.989 20.0504 119.041 19.2379C119.092 18.5069 119.701 17.9699 120.401 17.9296L120.486 17.9271H121.799V15.6471C121.799 14.7601 122.51 14.0696 123.388 14.0716H123.388ZM61.6609 17.6389C62.3963 17.7699 62.974 18.3989 62.974 19.1851C62.974 19.9686 62.3878 20.6301 61.6396 20.7239L61.5557 20.7319H61.2406C58.2412 20.3961 56.0567 22.7289 55.9903 25.6024L55.9886 25.7374V32.3686C55.9886 33.2861 55.2271 33.9936 54.3078 33.9411C53.4972 33.8911 52.8825 33.2071 52.8399 32.4061L52.8374 32.3161V19.4734C52.8374 18.6086 53.5463 17.9011 54.413 17.9011C55.1735 17.9011 55.9345 18.4629 55.9861 19.3744L55.9888 19.4734V19.6834C57.223 18.1366 59.3762 17.2984 61.6611 17.6389H61.6609ZM115.391 19.2901C116.228 19.2901 116.917 19.9496 116.964 20.7739L116.966 20.8629V32.3686C116.966 33.2339 116.258 33.9411 115.391 33.9411C114.554 33.9411 113.864 33.2819 113.818 32.4576L113.816 32.3686V20.8629C113.816 19.9976 114.524 19.2904 115.391 19.2904V19.2901ZM86.3987 20.6791C83.9825 20.6791 82.0392 23.0384 82.0392 25.9214C82.0392 28.8306 83.9825 31.1629 86.3987 31.1629C88.7884 31.1629 90.7582 28.8304 90.7582 25.9214C90.7582 23.0119 88.8149 20.6791 86.3987 20.6791ZM102.812 20.6791C100.396 20.6791 98.4527 23.0384 98.4527 25.9214C98.4527 28.8306 100.396 31.1629 102.812 31.1629C105.228 31.1629 107.171 28.8304 107.171 25.9214C107.171 23.0119 105.228 20.6791 102.812 20.6791ZM70.3008 20.7056C68.4527 20.7056 66.8558 22.0824 66.2203 24.0529L66.1777 24.1914H74.4238C73.8199 22.1731 72.1912 20.7056 70.3008 20.7056Z" fill="#222222"/>
<path d="M22.0067 43.9275C34.1607 43.9275 44.0135 34.094 44.0135 21.9638C44.0135 9.83351 34.1607 0 22.0067 0C9.85275 0 0 9.83351 0 21.9638C0 34.094 9.85275 43.9275 22.0067 43.9275Z" fill="#FF4500"/>
<path d="M36.6866 21.9637C36.6866 20.1814 35.2423 18.7662 33.4829 18.7662C32.6515 18.7649 31.8518 19.0841 31.2505 19.6572C29.0447 18.0847 26.0246 17.0624 22.663 16.9317L24.1334 10.0644L28.9132 11.0867C28.9658 12.2924 29.9635 13.2622 31.1982 13.2622C32.4586 13.2622 33.4826 12.2399 33.4826 10.9814C33.4826 9.72342 32.4586 8.70142 31.1982 8.70142C30.3052 8.70142 29.5174 9.22567 29.1497 9.98592L23.8188 8.85867C23.6612 8.83242 23.5036 8.85867 23.3984 8.93742C23.2672 9.01617 23.1883 9.14692 23.1625 9.30442L21.5338 16.9574C18.1201 17.0624 15.0474 18.0847 12.8153 19.6837C12.2141 19.1106 11.4145 18.7913 10.5832 18.7924C8.79716 18.7924 7.37939 20.2337 7.37939 21.9899C7.37939 23.3004 8.16693 24.4009 9.27034 24.8994C9.21673 25.2199 9.19034 25.5443 9.19143 25.8692C9.19143 30.7962 14.9427 34.8067 22.033 34.8067C29.1236 34.8067 34.8748 30.8224 34.8748 25.8692C34.8748 25.5544 34.8483 25.2134 34.7959 24.8992C35.3597 24.642 35.8376 24.2286 36.1727 23.7082C36.5078 23.1878 36.6861 22.5823 36.6864 21.9637H36.6866ZM14.6797 24.2437C14.6797 22.9857 15.7039 21.9637 16.9649 21.9637C18.2253 21.9637 19.2493 22.9857 19.2493 24.2437C19.2493 25.5017 18.2253 26.5242 16.9649 26.5242C15.7039 26.5502 14.6797 25.5017 14.6797 24.2437ZM27.4691 30.2984C25.8936 31.8709 22.8995 31.9759 22.033 31.9759C21.1403 31.9759 18.1464 31.8447 16.5966 30.2984C16.5406 30.2438 16.4961 30.1786 16.4656 30.1065C16.4352 30.0345 16.4196 29.9571 16.4196 29.8789C16.4196 29.8007 16.4352 29.7234 16.4656 29.6513C16.4961 29.5793 16.5406 29.514 16.5966 29.4594C16.6514 29.4035 16.7167 29.3591 16.7889 29.3288C16.861 29.2984 16.9385 29.2828 17.0168 29.2828C17.0951 29.2828 17.1726 29.2984 17.2448 29.3288C17.317 29.3591 17.3823 29.4035 17.437 29.4594C18.4352 30.4557 20.5361 30.7962 22.033 30.7962C23.5299 30.7962 25.6568 30.4557 26.6285 29.4594C26.6832 29.4035 26.7486 29.359 26.8208 29.3287C26.8929 29.2983 26.9705 29.2827 27.0488 29.2827C27.1271 29.2827 27.2047 29.2983 27.2769 29.3287C27.349 29.359 27.4144 29.4035 27.4691 29.4594C27.5707 29.5757 27.6267 29.7247 27.6267 29.8789C27.6267 30.0332 27.5707 30.1822 27.4691 30.2984ZM27.0486 26.5502C25.7881 26.5502 24.7641 25.5282 24.7641 24.2702C24.7641 23.0122 25.7881 21.9902 27.0486 21.9902C28.3095 21.9902 29.3335 23.0122 29.3335 24.2702C29.3335 25.5017 28.3095 26.5502 27.0486 26.5502Z" fill="white"/>
</g>
<defs>
<clipPath id="clip0_1_1036">
<rect width="128" height="44" fill="white"/>
</clipPath>
</defs>
</svg>
