<svg width="103" height="161" viewBox="0 0 103 161" fill="none" xmlns="http://www.w3.org/2000/svg">
<g clip-path="url(#clip0_1_25)">
<path d="M51.4998 63.4174C26.1746 63.4174 5.6476 83.9444 5.6476 109.27C5.6476 134.595 26.1746 155.122 51.4998 155.122C76.8249 155.122 97.3519 134.595 97.3519 109.27C97.3004 83.9659 76.8034 63.4689 51.5041 63.4174H51.4998ZM51.4998 159.109C23.973 159.109 1.66064 136.796 1.66064 109.27C1.66064 81.7428 23.973 59.4304 51.4998 59.4304C79.0265 59.4304 101.339 81.7428 101.339 109.27V109.334C101.339 136.822 79.0566 159.104 51.5684 159.104H51.4998H51.5041L51.4998 159.109Z" fill="#F66962"/>
<path d="M51.5 160.77C23.1149 160.624 0.145917 137.655 0 109.282V109.27C0.145917 80.8844 23.1149 57.9154 51.4871 57.7695H51.5C79.8851 57.9154 102.854 80.8844 103 109.257V109.27C102.854 137.655 79.8851 160.624 51.5129 160.77H51.5ZM51.5 61.0913C24.8917 61.0913 3.32175 82.6612 3.32175 109.27C3.32175 135.878 24.8917 157.448 51.5 157.448C78.1083 157.448 99.6782 135.878 99.6782 109.27C99.6611 82.6698 78.0997 61.1127 51.5043 61.0913H51.5ZM51.5 156.783C25.2607 156.783 3.98696 135.509 3.98696 109.27C3.98696 83.0303 25.2607 61.7565 51.5 61.7565C77.7736 61.8423 99.0688 83.0217 99.3435 109.244V109.27C99.0688 135.513 77.7693 156.697 51.5086 156.783H51.5ZM51.5 65.0782C27.0933 65.0782 7.30871 84.8628 7.30871 109.27C7.30871 133.676 27.0933 153.461 51.5 153.461C75.9067 153.461 95.6913 133.676 95.6913 109.27C95.5797 84.91 75.8638 65.1898 51.5129 65.0782H51.5043H51.5Z" fill="#F66962"/>
<path d="M41.5305 100.3C41.5305 102.679 40.5855 104.96 38.9033 106.643C37.2212 108.325 34.9398 109.27 32.5609 109.27C30.182 109.27 27.9006 108.325 26.2184 106.643C24.5363 104.96 23.5913 102.679 23.5913 100.3V100.261C23.5913 95.326 27.5911 91.3262 32.5266 91.3262H32.6038C37.5392 91.3262 41.5391 95.326 41.5391 100.261V100.3H41.5305ZM79.7435 100.3V100.339C79.7435 105.274 75.7436 109.274 70.8082 109.274H70.7696C68.3907 109.274 66.1093 108.329 64.4271 106.647C62.745 104.965 61.8 102.683 61.8 100.304C61.8 97.9255 62.745 95.644 64.4271 93.9619C66.1093 92.2798 68.3907 91.3348 70.7696 91.3348C73.1326 91.3808 75.3861 92.3394 77.0581 94.0098C78.7301 95.6802 79.6909 97.9328 79.7392 100.296V100.304L79.7435 100.3ZM31.5652 137.513C31.0974 137.499 30.6478 137.329 30.2872 137.03C29.9266 136.732 29.6757 136.322 29.5739 135.865L29.5696 135.852C29.5183 135.382 29.637 134.908 29.9043 134.518L29.9001 134.526C30.2714 134.122 30.7136 133.789 31.2047 133.543L31.2305 133.53L73.4261 124.226C73.8967 124.175 74.3702 124.294 74.7608 124.561L74.7523 124.557C75.1557 124.93 75.4904 125.368 75.7351 125.861L75.7479 125.887C75.8811 126.369 75.8176 126.884 75.5714 127.319C75.3252 127.755 74.9164 128.075 74.4347 128.209L74.4218 128.213L31.8914 137.517H31.5609L31.5652 137.513Z" fill="#F66962"/>
<path d="M31.5651 139.174L31.4277 139.178C30.6731 139.178 29.9422 138.914 29.3614 138.432C28.7807 137.95 28.3867 137.28 28.2476 136.539L28.2433 136.517C28.1202 136.071 28.0868 135.605 28.145 135.146C28.2032 134.688 28.3518 134.245 28.5824 133.844L28.5738 133.861C29.1961 133.14 29.9729 132.573 30.8612 132.213L30.8999 132.2L73.0955 122.565C73.5415 122.442 74.0074 122.409 74.4663 122.467C74.9253 122.525 75.3681 122.674 75.7692 122.904L75.7521 122.896C76.4731 123.518 77.0396 124.295 77.4001 125.183L77.4129 125.222C77.5278 125.678 77.5505 126.153 77.4798 126.619C77.409 127.084 77.2462 127.531 77.0009 127.933C76.7556 128.335 76.4327 128.684 76.051 128.96C75.6693 129.235 75.2365 129.432 74.7779 129.539L74.7521 129.543L32.2217 139.178L31.5651 139.174ZM74.0955 125.883L31.5651 135.517L31.2346 135.848L31.5651 136.178L74.0955 126.543C74.0955 126.213 74.4259 126.213 74.0955 125.878V125.883Z" fill="#F66962"/>
</g>
<path d="M85.3374 25.2447C85.4239 22.0964 84.2562 19.0428 82.0911 16.7555C79.9261 14.4682 76.9411 13.1346 73.7929 13.0482C70.6446 12.9617 67.591 14.1294 65.3037 16.2944C63.0164 18.4595 61.6828 21.4444 61.5964 24.5927C61.5791 25.2223 61.8126 25.8331 62.2456 26.2905C62.6786 26.748 63.2756 27.0147 63.9053 27.032C64.5349 27.0493 65.1457 26.8157 65.6031 26.3827C66.0606 25.9497 66.3273 25.3527 66.3446 24.7231C66.3833 23.3144 66.8388 21.9489 67.6536 20.7991C68.4683 19.6493 69.6058 18.767 70.922 18.2637C72.2382 17.7603 73.6742 17.6586 75.0482 17.9714C76.4223 18.2841 77.6727 18.9973 78.6414 20.0208C79.6102 21.0442 80.2536 22.3319 80.4905 23.721C80.7274 25.1102 80.547 26.5384 79.9722 27.825C79.3974 29.1116 78.454 30.1989 77.2612 30.9494C76.0685 31.6998 74.68 32.0797 73.2713 32.041C72.6416 32.0237 72.0309 32.2573 71.5734 32.6903C71.116 33.1233 70.8493 33.7203 70.832 34.3499L70.7016 39.0981C70.6843 39.7278 70.9178 40.3385 71.3508 40.796C71.7838 41.2534 72.3808 41.5201 73.0105 41.5374C73.6401 41.5547 74.2509 41.3212 74.7083 40.8882C75.1658 40.4552 75.4325 39.8582 75.4498 39.2285L75.5215 36.617C78.2178 36.1433 80.6676 34.7526 82.4563 32.6803C84.245 30.6079 85.2628 27.9812 85.3374 25.2447Z" fill="#F66962"/>
<path d="M72.7496 51.0339C74.0607 51.0699 75.1529 50.0361 75.1889 48.725C75.2249 47.4138 74.1911 46.3217 72.88 46.2857C71.5688 46.2496 70.4767 47.2834 70.4407 48.5946C70.4047 49.9057 71.4384 50.9979 72.7496 51.0339Z" fill="#F66962"/>
<path d="M4.19668 10.597C10.8899 6.95982 25.5 3.76929 31.2342 11.0691C39.4757 21.5609 37.9999 35.2693 28.5485 37.7906C22.6712 39.3584 14.476 33.5227 17.6375 24.0356C20.1667 16.4459 27.756 15.3912 31.2346 15.8125C34 16.1475 39.0964 18.3543 41.5 21.7694C43.9036 25.1845 43.766 30.2404 43.2527 32.8878C42.5 36.7694 41.2346 40.2693 37.9999 45.2693C36.2609 47.9574 31.2379 55.341 29.6569 56.9223" stroke="#F66962" stroke-width="2"/>
<defs>
<clipPath id="clip0_1_25">
<rect width="103" height="103" fill="white" transform="translate(0 57.7695)"/>
</clipPath>
</defs>
</svg>
