<svg width="56" height="56" viewBox="0 0 56 56" fill="none" xmlns="http://www.w3.org/2000/svg">
<path d="M51.25 0.875H4.75C3.7226 0.876026 2.73758 1.28461 2.01109 2.01109C1.28461 2.73758 0.876026 3.7226 0.875 4.75V51.25C0.876026 52.2774 1.28461 53.2624 2.01109 53.9889C2.73758 54.7154 3.7226 55.124 4.75 55.125H51.25C52.2774 55.124 53.2624 54.7154 53.9889 53.9889C54.7154 53.2624 55.124 52.2774 55.125 51.25V4.75C55.124 3.7226 54.7154 2.73758 53.9889 2.01109C53.2624 1.28461 52.2774 0.876026 51.25 0.875ZM51.25 24.125H41.5625V4.75H51.25V24.125ZM28 4.75H37.6875V24.125H28V4.75ZM24.125 4.75V35.75H4.75V4.75H24.125ZM4.75 39.625H24.125V51.25H4.75V39.625ZM28 51.25V28H51.25V51.25H28Z" fill="#F66962"/>
</svg>
