<svg width="52" height="48" viewBox="0 0 52 48" fill="none" xmlns="http://www.w3.org/2000/svg">
<path d="M33.7498 3.97912C33.7498 1.18912 30.4587 -0.285966 28.3765 1.5637L16.7696 11.8841C16.4153 12.1997 15.9576 12.3744 15.4831 12.375H5.979C4.43833 12.3749 2.96068 12.9866 1.87077 14.0756C0.780864 15.1645 0.167873 16.6416 0.166504 18.1823V29.7995C0.166504 31.3411 0.77889 32.8195 1.86895 33.9096C2.959 34.9996 4.43743 35.612 5.979 35.612H15.4857C15.9601 35.6126 16.4179 35.7872 16.7722 36.1029L28.3739 46.4181C30.4561 48.2704 33.7498 46.7927 33.7498 44.0053V3.97912ZM19.3478 14.7775L29.8748 5.41545V42.5689L19.3478 33.2095C18.2839 32.263 16.9096 31.74 15.4857 31.7396H5.979C5.46515 31.7396 4.97234 31.5355 4.60898 31.1721C4.24563 30.8088 4.0415 30.316 4.0415 29.8021V18.1823C4.0415 17.6684 4.24563 17.1756 4.60898 16.8123C4.97234 16.4489 5.46515 16.2448 5.979 16.2448H15.4857C16.9093 16.2451 18.2835 15.723 19.3478 14.7775ZM44.0625 8.23387C44.4753 7.92801 44.9927 7.79864 45.5009 7.87422C46.0091 7.94979 46.4665 8.22412 46.7724 8.63687C50.0672 13.0806 51.8418 18.468 51.8332 23.9999C51.8409 29.5321 50.0653 34.9195 46.7698 39.363C46.62 39.5718 46.4302 39.7486 46.2114 39.8833C45.9926 40.018 45.7492 40.1078 45.4954 40.1476C45.2415 40.1873 44.9823 40.1761 44.7328 40.1148C44.4834 40.0534 44.2486 39.943 44.0421 39.79C43.8357 39.637 43.6618 39.4445 43.5305 39.2237C43.3991 39.0029 43.313 38.7581 43.2772 38.5037C43.2413 38.2493 43.2565 37.9903 43.3216 37.7418C43.3868 37.4932 43.5008 37.2602 43.6569 37.0561C46.4578 33.2801 47.9662 28.7014 47.9582 23.9999C47.9657 19.2994 46.4573 14.7217 43.6569 10.9464C43.5052 10.7417 43.3953 10.5092 43.3336 10.262C43.2719 10.0149 43.2595 9.75795 43.2972 9.50601C43.3348 9.25406 43.4218 9.01201 43.5532 8.79372C43.6845 8.57544 43.8576 8.38519 44.0625 8.23387ZM39.2859 14.6199C39.5096 14.4985 39.7551 14.4225 40.0082 14.396C40.2613 14.3695 40.5172 14.3932 40.7612 14.4657C41.0051 14.5381 41.2325 14.6579 41.4301 14.8182C41.6278 14.9786 41.7919 15.1763 41.9132 15.4C43.2978 17.9601 44.0832 20.8896 44.0832 23.9999C44.0875 27.0018 43.3415 29.9571 41.9132 32.5973C41.7921 32.8212 41.628 33.019 41.4305 33.1796C41.2329 33.3401 41.0056 33.4601 40.7617 33.5328C40.5177 33.6055 40.2618 33.6294 40.0086 33.6032C39.7554 33.577 39.5098 33.5011 39.2859 33.38C39.062 33.2589 38.8642 33.0949 38.7036 32.8973C38.5431 32.6997 38.4231 32.4725 38.3504 32.2285C38.2777 31.9846 38.2538 31.7287 38.28 31.4755C38.3062 31.2223 38.3821 30.9767 38.5032 30.7528C39.5882 28.7455 40.2082 26.4464 40.2082 23.9974C40.211 21.6396 39.625 19.3184 38.5032 17.2445C38.2591 16.7926 38.2045 16.2623 38.3513 15.7702C38.4981 15.278 38.8342 14.8643 39.2859 14.6199Z" fill="#F66962"/>
</svg>
