<svg width="27" height="27" viewBox="0 0 27 27" fill="none" xmlns="http://www.w3.org/2000/svg">
<path d="M25.3594 0.609375H1.64062C1.07021 0.609375 0.609375 1.07021 0.609375 1.64062V25.3594C0.609375 25.9298 1.07021 26.3906 1.64062 26.3906H25.3594C25.9298 26.3906 26.3906 25.9298 26.3906 25.3594V1.64062C26.3906 1.07021 25.9298 0.609375 25.3594 0.609375ZM22.3816 8.13428H20.3224C18.7078 8.13428 18.3952 8.90127 18.3952 10.0292V12.5139H22.2495L21.7468 16.4036H18.3952V26.3906H14.3766V16.4068H11.0153V12.5139H14.3766V9.6457C14.3766 6.3167 16.4101 4.50234 19.3813 4.50234C20.8058 4.50234 22.0271 4.60869 22.3849 4.65703V8.13428H22.3816Z" fill="#F66962"/>
</svg>
