<svg width="16" height="15" viewBox="0 0 16 15" fill="none" xmlns="http://www.w3.org/2000/svg">
<path d="M15.1109 6.45778C15.2761 6.33472 15.3986 6.16306 15.4613 5.96685C15.524 5.77064 15.5237 5.55973 15.4605 5.36369C15.3973 5.16766 15.2743 4.99632 15.1087 4.87371C14.9432 4.7511 14.7435 4.68336 14.5375 4.68L10.5375 4.52889C10.5179 4.52753 10.499 4.52052 10.4833 4.50869C10.4675 4.49686 10.4555 4.48072 10.4487 4.46222L9.06643 0.728889C8.99699 0.538951 8.87085 0.374941 8.7051 0.259064C8.53935 0.143188 8.342 0.0810432 8.13977 0.0810432C7.93753 0.0810432 7.74018 0.143188 7.57443 0.259064C7.40868 0.374941 7.28255 0.538951 7.2131 0.728889L5.83532 4.47556C5.82851 4.49406 5.8165 4.51019 5.80073 4.52202C5.78496 4.53385 5.7661 4.54086 5.74643 4.54222L1.74643 4.69333C1.54048 4.6967 1.34074 4.76443 1.17523 4.88704C1.00972 5.00965 0.886727 5.18099 0.823504 5.37703C0.760282 5.57307 0.759998 5.78397 0.822693 5.98018C0.885388 6.17639 1.00792 6.34806 1.1731 6.47111L4.31088 8.93778C4.32658 8.95014 4.33832 8.96683 4.34464 8.98578C4.35096 9.00474 4.35158 9.02514 4.34643 9.04445L3.26643 12.8711C3.21047 13.066 3.21589 13.2733 3.28196 13.465C3.34803 13.6567 3.47155 13.8234 3.6357 13.9423C3.79985 14.0613 3.99667 14.1269 4.19939 14.13C4.40211 14.1332 4.60087 14.0738 4.76866 13.96L8.08421 11.7378C8.10054 11.7265 8.11992 11.7205 8.13977 11.7205C8.15961 11.7205 8.17899 11.7265 8.19532 11.7378L11.5109 13.96C11.6764 14.0777 11.8744 14.1409 12.0775 14.1409C12.2806 14.1409 12.4787 14.0777 12.6442 13.96C12.8084 13.8421 12.932 13.6763 12.9981 13.4853C13.0642 13.2942 13.0694 13.0875 13.0131 12.8933L11.9242 9.05333C11.9184 9.03406 11.9188 9.01347 11.9251 8.99438C11.9315 8.97529 11.9436 8.95863 11.9598 8.94667L15.1109 6.45778Z" fill="#FFA000"/>
</svg>
