<svg width="60" height="54" viewBox="0 0 60 54" fill="none" xmlns="http://www.w3.org/2000/svg">
<path d="M53.4611 27.9102C53.4519 27.5206 53.2962 27.1488 53.0252 26.8688L26.99 0.857829C26.8567 0.719387 26.6968 0.609259 26.52 0.534037C26.3431 0.458815 26.1529 0.420044 25.9607 0.420044C25.7685 0.420044 25.5783 0.458815 25.4014 0.534037C25.2246 0.609259 25.0647 0.719387 24.9314 0.857829L14.8806 10.9086L8.19624 4.20002C7.92325 3.92703 7.55301 3.77367 7.16694 3.77367C6.78088 3.77367 6.41063 3.92703 6.13765 4.20002C5.86466 4.473 5.7113 4.84325 5.7113 5.22931C5.7113 5.61538 5.86466 5.98562 6.13765 6.25861L12.8462 12.943L1.65718 24.132C0.658902 25.1311 0.0981445 26.4857 0.0981445 27.8981C0.0981445 29.3104 0.658902 30.665 1.65718 31.6641L22.1947 52.2258C23.2012 53.2192 24.5586 53.7761 25.9728 53.7758C26.6699 53.778 27.3605 53.6422 28.0048 53.3762C28.6491 53.1102 29.2343 52.7192 29.7267 52.2258L53.0252 28.9274C53.2989 28.6591 53.4556 28.2935 53.4611 27.9102ZM27.6923 50.1672C27.2345 50.6198 26.6166 50.8736 25.9728 50.8736C25.329 50.8736 24.7112 50.6198 24.2533 50.1672L3.71577 29.6055C3.2647 29.1517 3.01151 28.5379 3.01151 27.8981C3.01151 27.2582 3.2647 26.6444 3.71577 26.1906L14.8806 15.0016L22.6791 22.8C21.879 24.1133 21.5872 25.674 21.8587 27.1877C22.1302 28.7014 22.9462 30.0633 24.1529 31.0167C25.3595 31.9701 26.8733 32.449 28.4087 32.363C29.9441 32.277 31.395 31.6321 32.4876 30.55C33.3698 29.6694 33.9707 28.5467 34.2143 27.3243C34.4578 26.1018 34.3331 24.8346 33.8559 23.6831C33.3787 22.5315 32.5705 21.5476 31.5336 20.8558C30.4967 20.1639 29.2779 19.7954 28.0314 19.7969C26.8667 19.7974 25.7256 20.1246 24.7376 20.7414L16.9392 12.943L25.9728 3.93361L49.9494 27.9102L27.6923 50.1672ZM28.0314 22.7031C28.9301 22.7057 29.7916 23.0625 30.4291 23.6961C30.7469 24.0093 30.9992 24.3826 31.1715 24.7942C31.3437 25.2058 31.4324 25.6476 31.4324 26.0938C31.4324 26.54 31.3437 26.9817 31.1715 27.3933C30.9992 27.8049 30.7469 28.1782 30.4291 28.4914C30.1142 28.8063 29.7404 29.0561 29.329 29.2265C28.9176 29.3969 28.4767 29.4846 28.0314 29.4846C27.5861 29.4846 27.1452 29.3969 26.7338 29.2265C26.3224 29.0561 25.9486 28.8063 25.6337 28.4914C25.3159 28.1782 25.0636 27.8049 24.8913 27.3933C24.7191 26.9817 24.6304 26.54 24.6304 26.0938C24.6304 25.6476 24.7191 25.2058 24.8913 24.7942C25.0636 24.3826 25.3159 24.0093 25.6337 23.6961C26.2712 23.0625 27.1327 22.7057 28.0314 22.7031ZM54.2361 36.7016C54.1049 36.5638 53.9471 36.4542 53.7722 36.3792C53.5974 36.3043 53.4091 36.2656 53.2189 36.2656C53.0287 36.2656 52.8404 36.3043 52.6656 36.3792C52.4907 36.4542 52.3329 36.5638 52.2017 36.7016C51.9837 36.8953 46.922 42.0297 46.922 47.4063C46.922 49.0763 47.5854 50.6779 48.7663 51.8588C49.9472 53.0397 51.5489 53.7031 53.2189 53.7031C54.8889 53.7031 56.4906 53.0397 57.6715 51.8588C58.8524 50.6779 59.5158 49.0763 59.5158 47.4063C59.5158 42.0297 54.4541 36.8953 54.2361 36.7016ZM53.2189 50.7969C52.3196 50.7969 51.4572 50.4397 50.8214 49.8038C50.1855 49.1679 49.8283 48.3055 49.8283 47.4063C49.8283 44.5242 51.9111 41.5211 53.2189 39.9227C54.5267 41.5211 56.6095 44.5242 56.6095 47.4063C56.6095 48.3055 56.2523 49.1679 55.6164 49.8038C54.9806 50.4397 54.1181 50.7969 53.2189 50.7969Z" fill="#F66962"/>
</svg>
