<svg width="34" height="28" viewBox="0 0 34 28" fill="none" xmlns="http://www.w3.org/2000/svg">
<path d="M33.25 5.25V22.75C33.25 23.7446 32.8549 24.6984 32.1516 25.4016C31.4484 26.1049 30.4946 26.5 29.5 26.5H4.5C3.50544 26.5 2.55161 26.1049 1.84835 25.4016C1.14509 24.6984 0.75 23.7446 0.75 22.75V5.25M33.25 5.25C33.25 4.25544 32.8549 3.30161 32.1516 2.59835C31.4484 1.89509 30.4946 1.5 29.5 1.5H4.5C3.50544 1.5 2.55161 1.89509 1.84835 2.59835C1.14509 3.30161 0.75 4.25544 0.75 5.25M33.25 5.25V5.655C33.2501 6.29524 33.0862 6.92484 32.7741 7.48383C32.4619 8.04281 32.0118 8.51256 31.4667 8.84833L18.9667 16.54C18.3753 16.9042 17.6945 17.0971 17 17.0971C16.3055 17.0971 15.6247 16.9042 15.0333 16.54L2.53333 8.85C1.9882 8.51423 1.53812 8.04448 1.22595 7.48549C0.913781 6.92651 0.749929 6.29691 0.75 5.65667V5.25" stroke="black" stroke-width="1.5" stroke-linecap="round" stroke-linejoin="round"/>
</svg>
