<svg width="29" height="29" viewBox="0 0 29 29" fill="none" xmlns="http://www.w3.org/2000/svg">
<path d="M26.5299 14.5001L28.0479 11.8766C28.2304 11.5609 28.28 11.1857 28.1859 10.8335C28.0918 10.4813 27.8616 10.1809 27.5461 9.99831L24.9198 8.48031V5.45531C24.9198 5.09064 24.7749 4.7409 24.5171 4.48304C24.2592 4.22518 23.9095 4.08031 23.5448 4.08031H20.5212L19.0046 1.45544C18.8214 1.14045 18.5216 0.910259 18.1699 0.814689C17.9955 0.767411 17.8135 0.75522 17.6343 0.778823C17.4552 0.802426 17.2825 0.861353 17.1263 0.952189L14.5001 2.47019L11.8738 0.950814C11.558 0.768486 11.1827 0.719075 10.8305 0.813453C10.4782 0.90783 10.1779 1.13826 9.99556 1.45406L8.47756 4.08031H5.45394C5.08926 4.08031 4.73953 4.22518 4.48166 4.48304C4.2238 4.7409 4.07894 5.09064 4.07894 5.45531V8.47894L1.45269 9.99694C1.29598 10.0871 1.15863 10.2073 1.04852 10.3507C0.93842 10.4941 0.857731 10.6578 0.811095 10.8324C0.764459 11.0071 0.752795 11.1893 0.776771 11.3684C0.800748 11.5476 0.859894 11.7203 0.95081 11.8766L2.46881 14.5001L0.95081 17.1236C0.769295 17.4395 0.720047 17.8144 0.813803 18.1665C0.90756 18.5186 1.13672 18.8194 1.45131 19.0032L4.07756 20.5212V23.5448C4.07756 23.9095 4.22243 24.2592 4.48029 24.5171C4.73815 24.7749 5.08789 24.9198 5.45256 24.9198H8.47756L9.99556 27.5461C10.1173 27.7542 10.2911 27.927 10.4999 28.0475C10.7087 28.1681 10.9452 28.2322 11.1863 28.2336C11.4256 28.2336 11.6634 28.1703 11.8752 28.0479L14.4987 26.5299L17.1249 28.0479C17.4407 28.23 17.8157 28.2794 18.1678 28.1853C18.5199 28.0913 18.8204 27.8614 19.0032 27.5461L20.5198 24.9198H23.5434C23.9081 24.9198 24.2578 24.7749 24.5157 24.5171C24.7736 24.2592 24.9184 23.9095 24.9184 23.5448V20.5212L27.5447 19.0032C27.7011 18.9128 27.8382 18.7924 27.9481 18.649C28.058 18.5056 28.1386 18.3419 28.1852 18.1674C28.2318 17.9928 28.2435 17.8108 28.2197 17.6317C28.196 17.4526 28.1371 17.2799 28.0466 17.1236L26.5299 14.5001ZM11.0612 7.61131C11.6084 7.6115 12.1331 7.82904 12.5199 8.21609C12.9067 8.60315 13.1239 9.128 13.1237 9.67519C13.1235 10.2224 12.906 10.7471 12.5189 11.1339C12.1319 11.5207 11.607 11.7379 11.0598 11.7377C10.5126 11.7375 9.98791 11.52 9.60112 11.1329C9.21432 10.7459 8.99713 10.221 8.99731 9.67381C8.99749 9.12662 9.21504 8.60192 9.60209 8.21512C9.98914 7.82833 10.514 7.61113 11.0612 7.61131ZM11.4737 20.8113L9.27369 19.1627L17.5237 8.16269L19.7237 9.81131L11.4737 20.8113ZM17.9362 21.3613C17.6652 21.3612 17.397 21.3078 17.1467 21.204C16.8964 21.1002 16.669 20.9482 16.4775 20.7565C16.286 20.5649 16.1341 20.3374 16.0305 20.087C15.9269 19.8367 15.8736 19.5684 15.8737 19.2974C15.8738 19.0265 15.9272 18.7582 16.031 18.5079C16.1348 18.2577 16.2868 18.0303 16.4785 17.8387C16.6701 17.6472 16.8976 17.4953 17.148 17.3917C17.3983 17.2881 17.6666 17.2348 17.9376 17.2349C18.4848 17.2351 19.0095 17.4527 19.3963 17.8397C19.783 18.2268 20.0002 18.7516 20.0001 19.2988C19.9999 19.846 19.7823 20.3707 19.3953 20.7575C19.0082 21.1443 18.4834 21.3615 17.9362 21.3613Z" fill="#FFA100"/>
</svg>
