<svg width="34" height="34" viewBox="0 0 34 34" fill="none" xmlns="http://www.w3.org/2000/svg">
<path d="M0.75 8.25C0.75 22.0567 11.9433 33.25 25.75 33.25H29.5C30.4946 33.25 31.4484 32.8549 32.1516 32.1516C32.8549 31.4484 33.25 30.4946 33.25 29.5V27.2133C33.25 26.3533 32.665 25.6033 31.83 25.395L24.4583 23.5517C23.725 23.3683 22.955 23.6433 22.5033 24.2467L20.8867 26.4017C20.4167 27.0283 19.605 27.305 18.87 27.035C16.1415 26.0319 13.6636 24.4476 11.608 22.392C9.55235 20.3364 7.96812 17.8585 6.965 15.13C6.695 14.395 6.97167 13.5833 7.59833 13.1133L9.75333 11.4967C10.3583 11.045 10.6317 10.2733 10.4483 9.54167L8.605 2.17C8.50356 1.76449 8.26953 1.40451 7.94009 1.14723C7.61064 0.889952 7.20467 0.750139 6.78667 0.75H4.5C3.50544 0.75 2.55161 1.14509 1.84835 1.84835C1.14509 2.55161 0.75 3.50544 0.75 4.5V8.25Z" stroke="black" stroke-width="1.5" stroke-linecap="round" stroke-linejoin="round"/>
</svg>
