<svg width="23" height="23" viewBox="0 0 23 23" fill="none" xmlns="http://www.w3.org/2000/svg">
<path d="M19.2086 18.0611L22.3823 21.2331C22.5303 21.3864 22.6122 21.5916 22.6103 21.8047C22.6085 22.0177 22.523 22.2215 22.3724 22.3721C22.2217 22.5228 22.0179 22.6082 21.8049 22.6101C21.5919 22.6119 21.3866 22.53 21.2334 22.382L18.0598 19.2084C15.9859 20.9852 13.3044 21.8898 10.578 21.7322C7.85154 21.5746 5.29213 20.3671 3.43679 18.3631C1.58145 16.3591 0.574399 13.7144 0.626959 10.984C0.679518 8.25351 1.7876 5.64953 3.71869 3.71844C5.64977 1.78736 8.25376 0.679274 10.9842 0.626714C13.7147 0.574155 16.3594 1.5812 18.3634 3.43654C20.3673 5.29188 21.5748 7.85129 21.7324 10.5777C21.89 13.3041 20.9855 15.9856 19.2086 18.0595V18.0611ZM11.1876 20.1249C13.558 20.1249 15.8313 19.1833 17.5074 17.5072C19.1835 15.831 20.1251 13.5578 20.1251 11.1874C20.1251 8.81702 19.1835 6.54373 17.5074 4.86762C15.8313 3.19151 13.558 2.24989 11.1876 2.24989C8.81726 2.24989 6.54397 3.19151 4.86787 4.86762C3.19176 6.54373 2.25013 8.81702 2.25013 11.1874C2.25013 13.5578 3.19176 15.831 4.86787 17.5072C6.54397 19.1833 8.81726 20.1249 11.1876 20.1249Z" fill="#3A3A3A"/>
</svg>
