<svg width="23" height="27" viewBox="0 0 23 27" fill="none" xmlns="http://www.w3.org/2000/svg">
<path d="M17.1388 8.66665V6.29026C17.1388 5.54975 16.993 4.81649 16.7096 4.13235C16.4262 3.4482 16.0109 2.82658 15.4872 2.30296C14.9636 1.77934 14.342 1.36398 13.6579 1.0806C12.9737 0.797221 12.2405 0.651367 11.4999 0.651367C10.7594 0.651367 10.0262 0.797221 9.34204 1.0806C8.65789 1.36398 8.03627 1.77934 7.51265 2.30296C6.98903 2.82658 6.57367 3.4482 6.29029 4.13235C6.00691 4.81649 5.86106 5.54975 5.86106 6.29026V11.9291C5.86106 12.1428 5.94593 12.3477 6.097 12.4988C6.24807 12.6498 6.45297 12.7347 6.66661 12.7347C6.88026 12.7347 7.08516 12.6498 7.23623 12.4988C7.3873 12.3477 7.47217 12.1428 7.47217 11.9291V10.2778H13.9166V8.66665H7.47217V6.29026C7.47217 5.22202 7.89652 4.19754 8.65188 3.44219C9.40723 2.68683 10.4317 2.26248 11.4999 2.26248C12.5682 2.26248 13.5927 2.68683 14.348 3.44219C15.1034 4.19754 15.5277 5.22202 15.5277 6.29026V11.8889C15.5277 12.1025 15.6126 12.3074 15.7637 12.4585C15.9147 12.6096 16.1196 12.6944 16.3333 12.6944C16.5469 12.6944 16.7518 12.6096 16.9029 12.4585C17.054 12.3074 17.1388 12.1025 17.1388 11.8889V10.2778H21.1666V24.7778H1.83328V10.2778H4.24995V8.66665H0.222168V24.8503C0.222168 25.2583 0.384271 25.6497 0.672817 25.9382C0.961362 26.2268 1.35271 26.3889 1.76078 26.3889H21.2391C21.6472 26.3889 22.0385 26.2268 22.3271 25.9382C22.6156 25.6497 22.7777 25.2583 22.7777 24.8503V8.66665H17.1388Z" fill="#3A3A3A"/>
</svg>
