<svg width="27" height="27" viewBox="0 0 27 27" fill="none" xmlns="http://www.w3.org/2000/svg">
<path d="M25.3594 0.609375H1.64062C1.07021 0.609375 0.609375 1.07021 0.609375 1.64062V25.3594C0.609375 25.9298 1.07021 26.3906 1.64062 26.3906H25.3594C25.9298 26.3906 26.3906 25.9298 26.3906 25.3594V1.64062C26.3906 1.07021 25.9298 0.609375 25.3594 0.609375ZM20.4384 9.94541C20.448 10.0969 20.448 10.2548 20.448 10.4095C20.448 15.1403 16.8451 20.5898 10.2612 20.5898C8.23096 20.5898 6.34893 20.0001 4.76338 18.985C5.05342 19.0172 5.33057 19.0301 5.62705 19.0301C7.30283 19.0301 8.84326 18.4629 10.0711 17.5025C8.49844 17.4703 7.17715 16.4391 6.72598 15.0211C7.27705 15.1017 7.77334 15.1017 8.34053 14.9566C7.53076 14.7921 6.80292 14.3523 6.28066 13.712C5.7584 13.0717 5.47393 12.2703 5.47559 11.4439V11.3988C5.94932 11.6663 6.50684 11.8307 7.09014 11.8532C6.59979 11.5264 6.19765 11.0837 5.91938 10.5643C5.64112 10.0448 5.49532 9.46476 5.49492 8.87549C5.49492 8.2084 5.66895 7.59932 5.98154 7.0708C6.88035 8.17726 8.00192 9.0822 9.27337 9.7268C10.5448 10.3714 11.9377 10.7413 13.3614 10.8123C12.8555 8.3792 14.673 6.41016 16.858 6.41016C17.8893 6.41016 18.8174 6.84199 19.4716 7.53809C20.2805 7.38662 21.0539 7.08369 21.7436 6.67764C21.4761 7.50586 20.9153 8.20518 20.1709 8.64668C20.8928 8.56934 21.5889 8.36953 22.2334 8.08916C21.7468 8.80459 21.1377 9.43945 20.4384 9.94541Z" fill="#F66962"/>
</svg>
