<svg width="57" height="38" viewBox="0 0 57 38" fill="none" xmlns="http://www.w3.org/2000/svg">
<path d="M5.6955 36.6889L9.34963 25.8272H22.8075L26.4655 36.6889H31.3325L18.4675 0.53125H13.7478L0.875 36.6889H5.6955ZM16.158 5.98725L21.5675 22.0918H10.6012L16.0262 5.98725H16.158ZM51.5988 33.2169H51.7344V36.6889H56.1054V17.4844C56.1054 11.6331 51.7886 8.3975 45.8521 8.3975C39.1251 8.3975 35.8159 11.947 35.5214 16.8218H39.8149C40.0784 14.0395 42.1205 12.2105 45.6932 12.2105C49.4559 12.2105 51.5755 14.2255 51.5755 17.8835V20.7161H44.2362C37.8541 20.7432 34.4635 23.8161 34.4635 28.6909C34.4635 33.802 38.1719 37.1384 43.5504 37.1384C47.6579 37.1384 50.1999 35.4721 51.6026 33.2207L51.5988 33.2169ZM44.7671 33.3525C41.8531 33.3525 39.1251 31.8141 39.1251 28.532C39.1251 26.0133 40.7681 24.2114 44.5811 24.2114H51.5755V27.4431C51.5755 30.9151 48.6615 33.3525 44.7671 33.3525Z" fill="#F66962"/>
</svg>
