<svg width="56" height="42" viewBox="0 0 56 42" fill="none" xmlns="http://www.w3.org/2000/svg">
<path d="M55.5554 7.80782C55.5606 7.13039 55.3762 6.46502 55.0232 5.88681C54.6702 5.3086 54.1626 4.84059 53.5577 4.5356C52.9843 4.22768 52.3354 4.08853 51.6861 4.13425C51.0369 4.17997 50.4139 4.4087 49.8893 4.79393L41.7777 9.97782V3.77782C41.7777 2.8643 41.4148 1.98819 40.7688 1.34223C40.1229 0.69627 39.2467 0.333374 38.3332 0.333374H7.33322C5.50618 0.333374 3.75396 1.05917 2.46204 2.35108C1.17013 3.643 0.444336 5.39522 0.444336 7.22226V34.7778C0.444336 36.6049 1.17013 38.3571 2.46204 39.649C3.75396 40.9409 5.50618 41.6667 7.33322 41.6667H38.3332C39.2467 41.6667 40.1229 41.3038 40.7688 40.6579C41.4148 40.0119 41.7777 39.1358 41.7777 38.2223V32.0223L49.7688 37.1889C50.3033 37.5983 50.9429 37.8479 51.6134 37.9088C52.284 37.9698 52.958 37.8396 53.5577 37.5334C54.1733 37.2233 54.6879 36.7445 55.0417 36.1529C55.3954 35.5613 55.5736 34.8813 55.5554 34.1923V7.80782ZM51.9904 34.3817C51.8871 34.3817 51.801 34.3817 51.6632 34.2784L38.3332 25.7706V38.2223H7.33322C6.4197 38.2223 5.54359 37.8594 4.89763 37.2134C4.25168 36.5675 3.88878 35.6913 3.88878 34.7778V7.22226C3.88878 6.30874 4.25168 5.43263 4.89763 4.78667C5.54359 4.14071 6.4197 3.77782 7.33322 3.77782H38.3332V16.2295L51.7666 7.61837C51.799 7.59458 51.8382 7.58176 51.8785 7.58176C51.9188 7.58176 51.958 7.59458 51.9904 7.61837C52.0281 7.63297 52.0601 7.65923 52.0818 7.69331C52.1035 7.72739 52.1137 7.76751 52.111 7.80782V34.1923C52.1137 34.2326 52.1035 34.2727 52.0818 34.3068C52.0601 34.3409 52.0281 34.3671 51.9904 34.3817Z" fill="#F66962"/>
</svg>
