<svg width="95" height="95" viewBox="0 0 95 95" fill="none" xmlns="http://www.w3.org/2000/svg">
<circle cx="47.5001" cy="47.5" r="36.9444" fill="#F66962"/>
<path d="M65.4307 44.9019C67.4307 46.0566 67.4307 48.9434 65.4307 50.0981L40.7848 64.3274C38.7848 65.4821 36.2848 64.0387 36.2848 61.7293L36.2848 33.2707C36.2848 30.9613 38.7848 29.518 40.7848 30.6727L65.4307 44.9019Z" fill="white"/>
<mask id="path-3-inside-1_1_800" fill="white">
<path d="M87.0135 21.1384C93.3186 30.5891 96.0275 41.9867 94.649 53.2636C93.2705 64.5406 87.8958 74.9499 79.4999 82.6035C71.1039 90.2572 60.2429 94.6481 48.8868 94.9798C37.5308 95.3114 26.432 91.562 17.6036 84.4115C8.77525 77.2609 2.80214 67.183 0.767762 56.0058C-1.26662 44.8285 0.77249 33.2923 6.5152 23.4897C12.2579 13.6871 21.3238 6.2674 32.0685 2.57654C42.8131 -1.11433 54.5248 -0.831899 65.079 3.37258L64.399 5.07956C54.253 1.03772 42.9944 0.76622 32.6654 4.31431C22.3364 7.86239 13.6212 14.9951 8.10061 24.4185C2.58005 33.8419 0.619821 44.9318 2.5755 55.6767C4.53119 66.4216 10.2732 76.1097 18.7601 82.9836C27.2469 89.8575 37.9164 93.462 48.8332 93.1431C59.7499 92.8242 70.1908 88.6032 78.262 81.2456C86.3332 73.8881 91.5 63.8814 92.8252 53.0407C94.1504 42.1999 91.5462 31.2433 85.485 22.1582L87.0135 21.1384Z"/>
</mask>
<path d="M87.0135 21.1384C93.3186 30.5891 96.0275 41.9867 94.649 53.2636C93.2705 64.5406 87.8958 74.9499 79.4999 82.6035C71.1039 90.2572 60.2429 94.6481 48.8868 94.9798C37.5308 95.3114 26.432 91.562 17.6036 84.4115C8.77525 77.2609 2.80214 67.183 0.767762 56.0058C-1.26662 44.8285 0.77249 33.2923 6.5152 23.4897C12.2579 13.6871 21.3238 6.2674 32.0685 2.57654C42.8131 -1.11433 54.5248 -0.831899 65.079 3.37258L64.399 5.07956C54.253 1.03772 42.9944 0.76622 32.6654 4.31431C22.3364 7.86239 13.6212 14.9951 8.10061 24.4185C2.58005 33.8419 0.619821 44.9318 2.5755 55.6767C4.53119 66.4216 10.2732 76.1097 18.7601 82.9836C27.2469 89.8575 37.9164 93.462 48.8332 93.1431C59.7499 92.8242 70.1908 88.6032 78.262 81.2456C86.3332 73.8881 91.5 63.8814 92.8252 53.0407C94.1504 42.1999 91.5462 31.2433 85.485 22.1582L87.0135 21.1384Z" stroke="white" stroke-width="4" mask="url(#path-3-inside-1_1_800)"/>
</svg>
