<svg width="29" height="27" viewBox="0 0 29 27" fill="none" xmlns="http://www.w3.org/2000/svg">
<path d="M12.092 10.4471L18.2545 13.5113L12.092 16.5756V10.4471ZM29 3.53125V23.4688C29 24.9697 27.6083 26.1875 25.8929 26.1875H3.10714C1.39174 26.1875 0 24.9697 0 23.4688V3.53125C0 2.03027 1.39174 0.8125 3.10714 0.8125H25.8929C27.6083 0.8125 29 2.03027 29 3.53125ZM26.2812 13.517C26.2812 13.517 26.2812 10.1412 25.7893 8.52129C25.5174 7.62637 24.7212 6.92402 23.7049 6.68613C21.873 6.25 14.5 6.25 14.5 6.25C14.5 6.25 7.12701 6.25 5.29509 6.68613C4.27879 6.92402 3.48259 7.62637 3.21071 8.52129C2.71875 10.1355 2.71875 13.517 2.71875 13.517C2.71875 13.517 2.71875 16.8928 3.21071 18.5127C3.48259 19.4076 4.27879 20.0816 5.29509 20.3195C7.12701 20.75 14.5 20.75 14.5 20.75C14.5 20.75 21.873 20.75 23.7049 20.3139C24.7212 20.076 25.5174 19.402 25.7893 18.507C26.2812 16.8928 26.2812 13.517 26.2812 13.517Z" fill="#F66962"/>
</svg>
